# xmcd
#
# Track frame offsets:
#	150
#	11517
#	28780
#	40692
#	53435
#	65977
#	80112
#	93512
#	110500
#	120587
#	133342
#	146712
#	160490
#	174375
#
# Disc length: 2491 seconds
#
# Revision: 0
# Processed by: cddbd v1.5.2PL0 Copyright (c) Steve Scherf et al.
# Submitted via: audiograbber 1.83.01
#
DISCID=c509b90e
DTITLE=Las mejores Rancheras - Las mejores Rancheras - Cd2
DYEAR=1995
DGENRE=Rancheras
TTITLE0=Javier Solis - Escandalo
TTITLE1=Antonio Aguilar - Juan Carrasqueado
TTITLE2=Pedrito Fernandez - La Mugrosita
TTITLE3=Paquita la del Barrio - Desquitate Conmigo
TTITLE4=Cuco Sanchez - Guitarras lloren Guitarras
TTITLE5=Pedro Infante - La Calandria
TTITLE6=Pedro Vargas - Traicion
TTITLE7=Jose Alfredo Jimenez - Un mundo Raro
TTITLE8=Lucha Villa - El Rey
TTITLE9=Lola Beltran - Gorrioncillo pecho Amarillo
TTITLE10=Antonio Aguilar - Sonaron cuatro Balazos
TTITLE11=Beatriz Adriana - Anillo de Compromiso
TTITLE12=Miguel Aceves Mejia - El Prisionero
TTITLE13=Coral Chavez - Cartas Marcadas
EXTD=
EXTT0=
EXTT1=
EXTT2=
EXTT3=
EXTT4=
EXTT5=
EXTT6=
EXTT7=
EXTT8=
EXTT9=
EXTT10=
EXTT11=
EXTT12=
EXTT13=
PLAYORDER=
